<svg width="79" height="60" viewBox="0 0 79 60" fill="none" xmlns="http://www.w3.org/2000/svg">
<g clip-path="url(#clip0_508_8144)">
<path d="M2.16939 36.2748L0.129395 31.7315L25.1494 19.0773L29.8144 26.7242L64.0744 5.51123L66.4444 9.86261L28.2994 33.4752L23.4544 25.5244L2.16939 36.2748Z" fill="#E3E7EA"/>
<path d="M75.1296 1.59192L61.1196 1L68.9496 15.03L75.1296 1.59192Z" fill="#E3E7EA"/>
<path d="M34.0591 56.8001H42.8191V27.1724L34.0591 32.5956V56.8001Z" fill="white"/>
<path d="M47.2891 56.8H56.0491V18.9814L47.2891 24.4047V56.8Z" fill="#FAFAFA"/>
<path d="M22.6742 28.5L20.8442 29.4439V56.7999H29.5892V35.363L27.6092 36.5948L22.6742 28.5Z" fill="#FAFAFA"/>
<path d="M7.61426 56.7998H16.3593V31.7314L7.61426 36.1948V56.7998Z" fill="#ECEFF1"/>
</g>
<defs>
<clipPath id="clip0_508_8144">
<rect width="78.0876" height="58.4905" fill="white" transform="translate(0.129395 0.54248)"/>
</clipPath>
</defs>
</svg>
