<svg width="40" height="40" viewBox="0 0 40 40" fill="none" xmlns="http://www.w3.org/2000/svg">
<g clip-path="url(#clip0_509_7992)">
<path d="M20 0C18.62 0 17.5 1.12 17.5 2.5V7.5C17.5 8.88 18.62 10 20 10C21.38 10 22.5 8.88 22.5 7.5V2.5C22.5 1.12 21.38 0 20 0ZM20 30C18.62 30 17.5 31.1175 17.5 32.5V37.5C17.5 38.8825 18.62 40 20 40C21.38 40 22.5 38.8825 22.5 37.5V32.5C22.5 31.1175 21.38 30 20 30ZM30.605 12.93L34.14 9.3925C35.1175 8.4175 35.1175 6.8325 34.14 5.8575C33.165 4.88 31.5825 4.88 30.605 5.8575L27.07 9.3925C26.0925 10.37 26.0925 11.9525 27.07 12.93C28.0475 13.905 29.63 13.905 30.605 12.93ZM9.3925 27.07L5.8575 30.605C4.88 31.5825 4.88 33.165 5.8575 34.14C6.8325 35.1175 8.415 35.1175 9.3925 34.14L12.9275 30.605C13.905 29.6275 13.905 28.0475 12.9275 27.07C11.9525 26.095 10.37 26.095 9.3925 27.07ZM9.3925 5.8575C8.415 4.88 6.8325 4.88 5.8575 5.8575C4.88 6.8325 4.88 8.4175 5.8575 9.3925L9.3925 12.93C10.37 13.905 11.9525 13.905 12.9275 12.93C13.905 11.9525 13.905 10.37 12.9275 9.3925L9.3925 5.8575ZM30.605 27.07C29.6275 26.0925 28.0475 26.0925 27.07 27.07C26.0925 28.0475 26.0925 29.6275 27.07 30.605L30.605 34.14C31.5825 35.1175 33.165 35.1175 34.14 34.14C35.1175 33.165 35.1175 31.5825 34.14 30.605L30.605 27.07ZM37.5 17.5H32.5C31.1175 17.5 30 18.62 30 20C30 21.38 31.1175 22.5 32.5 22.5H37.5C38.8825 22.5 40 21.38 40 20C40 18.62 38.8825 17.5 37.5 17.5ZM10 20C10 18.62 8.88 17.5 7.5 17.5H2.5C1.12 17.5 0 18.62 0 20C0 21.38 1.12 22.5 2.5 22.5H7.5C8.88 22.5 10 21.38 10 20Z" fill="#0DC46E"/>
</g>
<defs>
<clipPath id="clip0_509_7992">
<rect width="40" height="40" fill="white"/>
</clipPath>
</defs>
</svg>
